{"title":"Lucy 2014 Hindi English Movies 720p BluRay Dual Audio 5.1 â˜»rDXâ˜»","uid":11626584,"size":895206308,"categoryP":"video","categoryS":"hd___movies","magnet":"?xt=urn:btih:fbae6f84afb248b82dc5eba78f5910ff0fd4e4ed&amp;dn=Lucy+2014+Hindi+English+Movies+720p+BluRay+Dual+Audio+5.1+%E2%98%BBrDX%E2%98%BB&amp;tr=udp%3A%2F%2Ftracker.openbittorrent.com%3A80&amp;tr=udp%3A%2F%2Fopen.demonii.com%3A1337&amp;tr=udp%3A%2F%2Ftracker.coppersurfer.tk%3A6969&amp;tr=udp%3A%2F%2Fexodus.desync.com%3A6969","seeders":7,"leechers":5,"uploader":"basicssom","files":2,"time":1417628387,"description":"----------------------------------------------------------------\nLucy 2014 Hindi English Movies 720p BluRay Dual Audio 5.1 AAC New Source +Sample ~ â˜»rDXâ˜»\n\nSCREEN SHOTS &amp; POSTER:\n &lt;a href=&quot;\nhttp://planethost.co.nr/12/Lucy/11.html&quot; rel=&quot;nofollow&quot; target=&quot;_NEW&quot;&gt;\nhttp://planethost.co.nr/12/Lucy/11.html&lt;/a&gt; &lt;a href=&quot;\nhttp://planethost.co.nr/12/Lucy/1.html&quot; rel=&quot;nofollow&quot; target=&quot;_NEW&quot;&gt;\nhttp://planethost.co.nr/12/Lucy/1.html&lt;/a&gt; &lt;a href=&quot;\nhttp://planethost.co.nr/12/Lucy/2.html&quot; rel=&quot;nofollow&quot; target=&quot;_NEW&quot;&gt;\nhttp://planethost.co.nr/12/Lucy/2.html&lt;/a&gt; &lt;a href=&quot;\nhttp://planethost.co.nr/12/Lucy/3.html&quot; rel=&quot;nofollow&quot; target=&quot;_NEW&quot;&gt;\nhttp://planethost.co.nr/12/Lucy/3.html&lt;/a&gt; &lt;a href=&quot;\nhttp://planethost.co.nr/12/Lucy/4.html&quot; rel=&quot;nofollow&quot; target=&quot;_NEW&quot;&gt;\nhttp://planethost.co.nr/12/Lucy/4.html&lt;/a&gt; &lt;a href=&quot;\nhttp://planethost.co.nr/12/Lucy/5.html&quot; rel=&quot;nofollow&quot; target=&quot;_NEW&quot;&gt;\nhttp://planethost.co.nr/12/Lucy/5.html&lt;/a&gt; &lt;a href=&quot;\nhttp://planethost.co.nr/12/Lucy/6.html&quot; rel=&quot;nofollow&quot; target=&quot;_NEW&quot;&gt;\nhttp://planethost.co.nr/12/Lucy/6.html&lt;/a&gt; &lt;a href=&quot;\nhttp://planethost.co.nr/12/Lucy/7.html&quot; rel=&quot;nofollow&quot; target=&quot;_NEW&quot;&gt;\nhttp://planethost.co.nr/12/Lucy/7.html&lt;/a&gt; &lt;a href=&quot;\nhttp://planethost.co.nr/12/Lucy/8.html&quot; rel=&quot;nofollow&quot; target=&quot;_NEW&quot;&gt;\nhttp://planethost.co.nr/12/Lucy/8.html&lt;/a&gt; &lt;a href=&quot;\nhttp://planethost.co.nr/12/Lucy/9.html&quot; rel=&quot;nofollow&quot; target=&quot;_NEW&quot;&gt;\nhttp://planethost.co.nr/12/Lucy/9.html&lt;/a&gt; &lt;a href=&quot;\nhttp://planethost.co.nr/12/Lucy/10.html&quot; rel=&quot;nofollow&quot; target=&quot;_NEW&quot;&gt;\nhttp://planethost.co.nr/12/Lucy/10.html&lt;/a&gt;\n\nFormat                                   : Matroska\nFormat version                           : Version 4 / Version 2\nFile size                                : 848 MiB\nOverall bit rate                         : 1 443 Kbps\nMovie name                               : Lucy 2014 Hindi English Movies 720p BluRay Dual Audio 5.1 AAC New Source ~ rDX ~\n\nVideo\nID                                       : 1\nFormat                                   : AVC\nFormat/Info                              : Advanced Video Codec\nFormat profile                           : &lt;a class=&quot;__cf_email__&quot; href=&quot;/cdn-cgi/l/email-protection&quot; data-cfemail=&quot;276f4e404f676b130916&quot;&gt;[email&amp;#160;protected]&lt;/a&gt;&lt;script cf-hash='f9e31' type=&quot;text/javascript&quot;&gt;\n/* &lt;![CDATA[ */!function(){try{var t=&quot;currentScript&quot;in document?document.currentScript:function(){for(var t=document.getElementsByTagName(&quot;script&quot;),e=t.length;e--;)if(t[e].getAttribute(&quot;cf-hash&quot;))return t[e]}();if(t&amp;&amp;t.previousSibling){var e,r,n,i,c=t.previousSibling,a=c.getAttribute(&quot;data-cfemail&quot;);if(a){for(e=&quot;&quot;,r=parseInt(a.substr(0,2),16),n=2;a.length-n;n+=2)i=parseInt(a.substr(n,2),16)^r,e+=String.fromCharCode(i);e=document.createTextNode(e),c.parentNode.replaceChild(e,c)}}}catch(u){}}();/* ]]&gt; */&lt;/script&gt;\nFormat settings, CABAC                   : Yes\nFormat settings, ReFrames                : 9 frames\nCodec ID                                 : V_MPEG4/ISO/AVC\nBit rate                                 : 1 030 Kbps\nWidth                                    : 1 280 pixels\nHeight                                   : 540 pixels\nDisplay aspect ratio                     : 2.40:1\nFrame rate mode                          : Constant\nFrame rate                               : 23.962 fps\nOriginal frame rate                      : 23.976 fps\nColor space                              : YUV\nChroma subsampling                       : 4:2:0\nBit depth                                : 8 bits\nScan type                                : Progressive\nBits/(Pixel*Frame)                       : 0.062\nStream size                              : 605 MiB (71%)\nTitle                                    : ~ rDX ~\nLanguage                                 : English\nDefault                                  : Yes\nForced                                   : No\n\nAudio #1\nID                                       : 2\nFormat                                   : AC-3\nFormat/Info                              : Audio Coding 3\nMode extension                           : CM (complete main)\nFormat settings, Endianness              : Big\nCodec ID                                 : A_AC3\nBit rate mode                            : Constant\nBit rate                                 : 192 Kbps\nChannel(s)                               : 6 channels\nChannel positions                        : Front: L C R, Side: L R, LFE\nSampling rate                            : 48.0 KHz\nBit depth                                : 16 bits\nCompression mode                         : Lossy\nDelay relative to video                  : 15ms\nStream size                              : 113 MiB (13%)\nTitle                                    : ~ rDX ~\nLanguage                                 : Hindi\nDefault                                  : Yes\nForced                                   : No\n\nAudio #2\nID                                       : 3\nFormat                                   : AC-3\nFormat/Info                              : Audio Coding 3\nMode extension                           : CM (complete main)\nFormat settings, Endianness              : Big\nCodec ID                                 : A_AC3\nBit rate mode                            : Constant\nBit rate                                 : 192 Kbps\nChannel(s)                               : 6 channels\nChannel positions                        : Front: L C R, Side: L R, LFE\nSampling rate                            : 48.0 KHz\nBit depth                                : 16 bits\nCompression mode                         : Lossy\nDelay relative to video                  : 15ms\nStream size                              : 113 MiB (13%)\nTitle                                    : ~ rDX ~\nLanguage                                 : English\nDefault                                  : No\nForced                                   : No","torrent":{"xt":"urn:btih:fbae6f84afb248b82dc5eba78f5910ff0fd4e4ed","amp;dn":"Lucy+2014+Hindi+English+Movies+720p+BluRay+Dual+Audio+5.1+%E2%98%BBrDX%E2%98%BB","amp;tr":["udp%3A%2F%2Ftracker.openbittorrent.com%3A80","udp%3A%2F%2Fopen.demonii.com%3A1337","udp%3A%2F%2Ftracker.coppersurfer.tk%3A6969","udp%3A%2F%2Fexodus.desync.com%3A6969"],"infoHash":"fbae6f84afb248b82dc5eba78f5910ff0fd4e4ed","infoHashBuffer":{"type":"Buffer","data":[251,174,111,132,175,178,72,184,45,197,235,167,143,89,16,255,15,212,228,237]},"announce":[],"urlList":[]}}